<?xml version="1.0" standalone="no"?>
<!DOCTYPE svg PUBLIC "-//W3C//DTD SVG 20010904//EN"
 "http://www.w3.org/TR/2001/REC-SVG-20010904/DTD/svg10.dtd">
<svg version="1.0" xmlns="http://www.w3.org/2000/svg"
 width="512.000000pt" height="512.000000pt" viewBox="0 0 512.000000 512.000000"
 preserveAspectRatio="xMidYMid meet">

<g transform="translate(0.000000,512.000000) scale(0.100000,-0.100000)"
fill="#000000" stroke="none">
<path d="M2445 4954 c-70 -11 -187 -46 -262 -78 -246 -105 -417 -264 -528
-491 -90 -184 -125 -350 -125 -597 l0 -147 -27 -15 c-86 -44 -135 -140 -141
-272 -11 -234 122 -421 312 -441 l56 -6 41 -76 c62 -112 142 -230 204 -299 30
-33 55 -66 55 -72 0 -32 -69 -136 -125 -188 -120 -113 -286 -205 -630 -352
-188 -80 -231 -108 -321 -202 -233 -242 -328 -593 -337 -1238 -2 -180 1 -196
59 -254 67 -66 -97 -61 1884 -61 1981 0 1817 -5 1884 61 57 58 61 74 59 249
-10 652 -104 1001 -337 1243 -90 94 -133 121 -331 206 -478 207 -676 343 -735
508 -13 36 -13 37 36 90 64 71 141 183 201 293 l48 89 65 11 c83 14 135 42
189 100 137 149 159 411 44 544 -19 23 -48 48 -64 57 l-29 15 0 157 c0 298
-60 519 -197 725 -168 252 -496 431 -813 442 -58 2 -118 1 -135 -1z m290 -154
c387 -89 642 -375 710 -793 23 -141 25 -140 -72 -46 -177 170 -402 285 -626
320 -148 23 -344 -4 -462 -63 -35 -19 -46 -20 -101 -9 -207 38 -359 -27 -476
-204 l-40 -60 7 60 c19 161 104 363 206 490 102 126 273 238 450 295 133 42
251 45 404 10z m75 -666 c273 -71 561 -296 627 -490 13 -39 14 -57 3 -122 -57
-355 -206 -683 -433 -946 -58 -67 -59 -70 -52 -115 3 -25 22 -79 41 -120 19
-41 33 -75 32 -76 -2 -1 -102 -76 -223 -167 -121 -90 -225 -167 -231 -171 -11
-6 -44 27 -332 324 l-103 106 16 58 c8 33 15 67 15 76 0 10 -35 60 -79 111
-148 176 -252 363 -332 598 -49 146 -58 238 -40 399 15 130 33 199 75 288 77
162 213 231 375 189 83 -21 81 -21 167 20 40 19 104 42 141 49 85 18 243 13
333 -11z m-1241 -734 c14 -76 65 -255 86 -307 18 -44 14 -49 -24 -34 -66 28
-129 137 -138 241 -7 72 1 115 28 159 25 42 31 35 48 -59z m2042 22 c18 -53
14 -152 -7 -213 -21 -58 -84 -136 -122 -150 -14 -5 -26 -8 -28 -6 -2 1 10 41
26 87 16 47 41 137 56 200 35 153 31 145 49 130 8 -6 19 -28 26 -48z m-1521
-1585 c66 -337 153 -705 220 -926 22 -73 39 -135 38 -137 -4 -4 -455 496 -486
539 -32 44 -24 71 47 172 73 101 91 136 91 170 0 62 -50 95 -142 95 -104 0
-126 39 -99 170 10 50 20 92 22 93 2 2 33 22 69 45 36 23 88 61 115 86 41 37
51 41 56 28 4 -10 35 -160 69 -335z m460 -77 c22 0 56 23 275 188 110 83 201
147 203 142 10 -29 -129 -644 -208 -921 -59 -205 -210 -659 -220 -659 -25 0
-172 439 -244 727 -68 271 -186 831 -186 881 0 10 82 -67 183 -171 100 -103
189 -187 197 -187z m710 305 c45 -30 102 -66 129 -79 46 -24 48 -26 59 -89 7
-35 12 -74 12 -86 0 -37 -40 -66 -110 -80 -108 -21 -150 -59 -150 -137 0 -44
26 -96 79 -155 47 -53 60 -84 52 -117 -6 -22 -491 -576 -498 -568 -2 1 6 29
17 62 99 285 246 879 314 1267 4 20 9 37 11 37 2 0 41 -25 85 -55z m337 -252
c-3 -10 -5 -4 -5 12 0 17 2 24 5 18 2 -7 2 -21 0 -30z m-337 -797 c0 -2 -8
-10 -17 -17 -16 -13 -17 -12 -4 4 13 16 21 21 21 13z m-2493 -258 c-3 -7 -5
-2 -5 12 0 14 2 19 5 13 2 -7 2 -19 0 -25z m3590 0 c-3 -7 -5 -2 -5 12 0 14 2
19 5 13 2 -7 2 -19 0 -25z m-2156 -25 c13 -16 12 -17 -3 -4 -17 13 -22 21 -14
21 2 0 10 -8 17 -17z m-1444 -180 c-3 -10 -5 -4 -5 12 0 17 2 24 5 18 2 -7 2
-21 0 -30z m3610 0 c-3 -10 -5 -4 -5 12 0 17 2 24 5 18 2 -7 2 -21 0 -30z
m-1976 -30 c13 -16 12 -17 -3 -4 -17 13 -22 21 -14 21 2 0 10 -8 17 -17z m404
-217 c11 -2 -13 -4 -52 -5 -40 0 -73 2 -73 7 0 6 79 5 125 -2z m-377 -3 c-21
-2 -55 -2 -75 0 -21 2 -4 4 37 4 41 0 58 -2 38 -4z m105 0 c-13 -2 -33 -2 -45
0 -13 2 -3 4 22 4 25 0 35 -2 23 -4z"/>
</g>
</svg>
