<?xml version="1.0" standalone="no"?>
<!DOCTYPE svg PUBLIC "-//W3C//DTD SVG 20010904//EN"
 "http://www.w3.org/TR/2001/REC-SVG-20010904/DTD/svg10.dtd">
<svg version="1.0" xmlns="http://www.w3.org/2000/svg"
 width="1920.000000pt" height="1920.000000pt" viewBox="0 0 1920.000000 1920.000000"
 preserveAspectRatio="xMidYMid meet">

<g transform="translate(0.000000,1920.000000) scale(0.100000,-0.100000)"
fill="#000000" stroke="none">
<path d="M6840 18230 c-712 -68 -1341 -362 -1845 -865 -434 -433 -721 -973
-829 -1565 -81 -438 -55 -965 68 -1380 74 -251 118 -353 341 -780 318 -611
525 -1089 698 -1615 123 -371 167 -544 292 -1143 47 -227 99 -451 116 -499 74
-208 191 -395 344 -548 242 -243 496 -370 858 -430 l37 -6 0 -304 0 -305 -72
0 c-177 -1 -311 -45 -409 -137 -66 -62 -103 -116 -137 -200 l-27 -68 -3 -370
c-4 -407 2 -461 55 -572 16 -34 55 -85 94 -126 110 -111 232 -156 427 -157
l62 0 0 -282 c0 -1085 202 -2223 558 -3153 226 -591 522 -1136 863 -1590 302
-403 707 -812 1071 -1083 124 -92 182 -110 269 -81 137 46 724 580 992 904
533 640 937 1391 1206 2240 269 851 404 1708 418 2658 l6 387 61 0 c193 1 315
46 425 157 39 41 78 92 94 126 53 111 59 165 55 572 l-3 370 -27 68 c-89 222
-273 336 -545 337 l-73 0 0 305 0 304 38 6 c361 60 615 187 857 430 153 153
270 340 344 548 17 48 69 272 116 499 123 591 168 767 287 1128 179 546 366
978 723 1670 101 195 202 400 224 456 145 369 211 715 211 1114 0 614 -165
1162 -498 1658 -115 172 -225 305 -377 457 -590 590 -1374 900 -2200 871 -390
-13 -673 -73 -1065 -226 -294 -114 -477 -168 -730 -214 -229 -41 -341 -51
-610 -51 -269 0 -381 10 -610 51 -253 46 -436 100 -730 214 -288 112 -494 167
-768 206 -130 18 -521 26 -652 14z m669 -489 c221 -38 353 -77 626 -184 365
-143 721 -229 1110 -268 154 -16 555 -16 710 0 384 38 754 128 1110 268 386
153 605 201 956 210 447 12 813 -67 1198 -258 535 -265 972 -732 1206 -1289
173 -410 233 -926 159 -1370 -51 -308 -138 -552 -318 -890 -340 -637 -603
-1238 -784 -1790 -125 -379 -176 -579 -297 -1158 -47 -229 -99 -449 -115 -494
-116 -318 -388 -556 -725 -634 -77 -18 -182 -19 -2745 -19 -2563 0 -2668 1
-2745 19 -337 78 -609 316 -725 634 -16 45 -68 265 -115 494 -121 579 -173
781 -297 1158 -185 563 -461 1192 -789 1800 -217 402 -310 711 -339 1120 -18
250 10 551 75 800 239 925 1005 1648 1945 1835 177 36 290 44 535 41 187 -3
267 -9 364 -25z m4301 -8651 l0 -300 -2210 0 -2210 0 0 300 0 300 2210 0 2210
0 0 -300z m638 -782 c9 -9 12 -97 12 -333 0 -236 -3 -324 -12 -333 -17 -17
-5679 -17 -5696 0 -9 9 -12 97 -12 333 0 236 3 324 12 333 17 17 5679 17 5696
0z m-2648 -1164 c-349 -153 -1005 -347 -1535 -453 -356 -72 -860 -149 -874
-135 -3 3 -7 140 -9 305 l-4 299 1229 0 c1114 -1 1225 -2 1193 -16z m2020
-128 l0 -144 -87 -69 c-979 -769 -2369 -1270 -4073 -1467 -69 -8 -128 -12
-131 -8 -21 23 -114 743 -97 753 6 4 42 10 82 14 88 8 422 58 576 86 816 146
1511 355 2190 659 124 55 457 225 555 283 l60 35 463 1 462 1 0 -144z m-40
-909 c-19 -218 -80 -661 -105 -773 -9 -42 -501 -318 -840 -472 -746 -339
-1616 -577 -2575 -706 -272 -37 -410 -50 -420 -40 -22 24 -231 744 -216 744
17 0 516 67 636 86 232 36 674 124 913 183 950 235 1781 581 2447 1019 91 60
167 104 169 99 2 -5 -2 -68 -9 -140z m-290 -1587 c-74 -263 -183 -580 -279
-812 l-32 -76 -112 -48 c-716 -301 -1572 -524 -2451 -639 -104 -14 -201 -25
-216 -25 -23 0 -34 14 -94 126 -152 278 -303 603 -283 608 7 2 77 11 157 21
996 113 2024 388 2857 765 174 80 458 223 478 242 21 20 15 -21 -25 -162z
m-638 -1552 c-11 -18 -48 -80 -82 -137 -209 -347 -477 -689 -759 -972 -144
-143 -395 -369 -411 -369 -3 0 -59 46 -125 102 -147 124 -430 408 -543 543
-109 130 -265 335 -260 340 2 3 67 14 144 25 648 95 1279 242 1814 424 118 40
221 74 228 75 10 1 8 -8 -6 -31z"/>
<path d="M6624 16960 c-640 -333 -1093 -964 -1210 -1685 -20 -124 -32 -375
-22 -435 16 -90 102 -172 193 -186 102 -15 215 52 248 148 9 24 20 114 26 208
5 91 20 211 31 268 77 382 290 752 579 1009 100 88 266 205 355 250 130 66
186 137 186 237 0 58 -33 138 -71 173 -39 36 -110 63 -166 63 -44 0 -69 -8
-149 -50z"/>
<path d="M12154 16496 c-57 -27 -110 -84 -124 -136 -6 -19 -10 -92 -10 -161
l0 -126 -137 -5 c-148 -5 -184 -14 -241 -63 -53 -44 -76 -99 -76 -177 0 -56 5
-74 30 -114 18 -30 48 -60 78 -79 48 -29 53 -30 198 -33 l148 -3 0 -137 c0
-124 3 -142 24 -189 29 -62 85 -106 156 -123 90 -22 178 11 236 87 42 55 57
127 52 256 l-3 102 145 5 c80 3 157 11 171 17 102 44 160 171 129 284 -13 47
-72 114 -124 141 -36 19 -59 23 -178 24 l-138 3 -3 133 c-2 109 -7 141 -24
178 -56 121 -190 172 -309 116z"/>
<path d="M7995 10856 c-156 -68 -190 -284 -63 -391 67 -57 41 -55 791 -55
l693 0 51 25 c78 39 123 114 123 206 0 90 -53 172 -135 210 -38 18 -79 19
-735 18 -551 0 -701 -3 -725 -13z"/>
</g>
</svg>
