<svg width="54" height="54" viewBox="0 0 54 54" fill="none" xmlns="http://www.w3.org/2000/svg">
<path d="M32.9003 7.19666L35.2173 4.87946C39.0565 1.04018 45.2813 1.04018 49.1206 4.87946C52.9598 8.71872 52.9598 14.9434 49.1206 18.7827L46.8033 21.0999M32.9003 7.19666C32.9003 7.19666 33.1898 12.1207 37.5345 16.4655C41.8793 20.8102 46.8033 21.0999 46.8033 21.0999M32.9003 7.19666L11.5971 28.4998C10.1542 29.9428 9.43271 30.664 8.81226 31.4596C8.08033 32.3981 7.45286 33.4133 6.94085 34.4876C6.50683 35.3983 6.1842 36.3663 5.5389 38.3021L2.80452 46.5053M46.8033 21.0999L25.5003 42.4031C24.0573 43.8458 23.336 44.5673 22.5405 45.1878C21.6021 45.9198 20.5867 46.5473 19.5125 47.0593C18.6018 47.4933 17.6338 47.8158 15.698 48.4611L7.49481 51.1956M2.80452 46.5053L2.13612 48.5106C1.81857 49.4631 2.0665 50.5133 2.77657 51.2236C3.48665 51.9336 4.53695 52.1816 5.4896 51.8641L7.49481 51.1956M2.80452 46.5053L7.49481 51.1956" stroke="#1C274C" stroke-width="4"/>
</svg>
