<?xml version="1.0" standalone="no"?>
<!DOCTYPE svg PUBLIC "-//W3C//DTD SVG 20010904//EN"
 "http://www.w3.org/TR/2001/REC-SVG-20010904/DTD/svg10.dtd">
<svg version="1.0" xmlns="http://www.w3.org/2000/svg"
 width="512.000000pt" height="512.000000pt" viewBox="0 0 512.000000 512.000000"
 preserveAspectRatio="xMidYMid meet">

<g transform="translate(0.000000,512.000000) scale(0.100000,-0.100000)"
fill="#000000" stroke="none">
<path d="M2416 5110 c-235 -37 -475 -163 -632 -332 -195 -209 -284 -460 -284
-800 0 -109 -11 -133 -86 -189 -108 -82 -174 -212 -174 -345 0 -76 -17 -122
-64 -174 -178 -197 -176 -492 4 -703 52 -61 56 -73 64 -200 4 -61 11 -92 37
-145 18 -37 33 -71 33 -75 1 -5 -64 -34 -144 -66 -80 -31 -172 -75 -206 -98
-95 -65 -188 -172 -239 -277 -82 -168 -79 -130 -83 -863 -2 -449 0 -665 8
-693 14 -51 63 -108 115 -131 38 -18 119 -19 1795 -19 1676 0 1757 1 1795 19
52 23 101 80 115 131 8 28 10 244 8 693 -4 645 -4 653 -27 727 -50 165 -168
330 -298 416 -31 21 -122 64 -202 95 -81 32 -146 62 -145 66 0 4 15 38 33 75
26 53 33 84 37 145 8 127 12 139 64 200 84 98 140 239 140 353 0 109 -58 261
-130 343 -53 60 -70 103 -70 181 0 133 -66 263 -174 345 -31 23 -62 54 -69 69
-9 17 -17 82 -21 177 -7 167 -30 297 -70 394 -34 83 -50 101 -95 101 -34 1
-39 6 -88 81 -43 65 -51 84 -43 99 23 43 12 72 -47 127 -128 119 -287 207
-453 250 -107 28 -302 39 -404 23z m383 -889 c50 -98 165 -261 255 -361 140
-155 151 -192 143 -500 -6 -228 -16 -281 -73 -390 -85 -162 -229 -279 -401
-326 -76 -20 -239 -20 -318 1 -253 65 -440 273 -473 525 -17 126 11 229 82
302 19 19 79 63 135 97 203 125 372 276 470 420 48 70 112 195 131 254 6 20
13 37 16 37 2 0 17 -26 33 -59z m-323 -1742 c109 -13 231 0 337 35 l67 22 0
-58 c0 -60 18 -118 47 -150 8 -9 47 -29 87 -45 39 -15 73 -28 76 -30 9 -7
-437 -445 -472 -464 -41 -21 -92 -24 -135 -8 -27 10 -473 445 -473 461 0 4 5
8 11 8 6 0 48 17 93 38 102 48 118 70 124 172 l4 76 71 -23 c39 -13 112 -28
163 -34z m-456 -1315 c110 -549 200 -1002 200 -1006 0 -5 -184 -8 -410 -8
l-410 0 0 653 c0 703 1 689 -54 715 -32 16 -80 2 -96 -29 -6 -11 -10 -275 -10
-678 l0 -661 -101 0 -100 0 3 683 c4 659 4 685 25 757 28 101 65 190 114 276
l41 71 297 115 c163 64 297 114 299 113 1 -1 92 -451 202 -1001z m1670 854
c157 -61 307 -122 335 -135 114 -58 232 -207 274 -347 20 -66 21 -88 21 -710
0 -386 -4 -647 -10 -656 -8 -12 -46 -16 -220 -18 l-210 -3 0 661 c0 404 -4
668 -10 679 -16 31 -64 45 -96 29 -55 -26 -54 -12 -54 -715 l0 -653 -410 0
c-327 0 -410 3 -410 13 0 7 36 192 80 412 44 220 80 410 80 424 0 34 -37 71
-72 71 -60 0 -70 -24 -122 -285 -26 -132 -66 -329 -88 -438 l-41 -197 -179 0
c-98 0 -178 1 -178 3 0 1 -83 418 -185 927 -102 509 -185 929 -185 934 0 6 84
-73 187 -175 169 -166 194 -187 242 -202 72 -23 148 -21 218 4 52 19 80 44
261 222 111 111 202 199 202 196 0 -3 -31 -162 -70 -354 -38 -192 -70 -359
-70 -370 0 -23 35 -61 60 -66 27 -6 69 11 80 31 8 15 180 844 180 867 0 1 24
-7 53 -18 28 -12 180 -71 337 -131z"/>
</g>
</svg>
