<?xml version="1.0" standalone="no"?>
<!DOCTYPE svg PUBLIC "-//W3C//DTD SVG 20010904//EN"
 "http://www.w3.org/TR/2001/REC-SVG-20010904/DTD/svg10.dtd">
<svg version="1.0" xmlns="http://www.w3.org/2000/svg"
 width="300.000000pt" height="300.000000pt" viewBox="0 0 300.000000 300.000000"
 preserveAspectRatio="xMidYMid meet">

<g transform="translate(0.000000,300.000000) scale(0.100000,-0.100000)"
fill="#000000" stroke="none">
<path d="M911 2904 c-140 -37 -283 -156 -356 -294 -35 -67 -39 -84 -43 -163
-5 -102 13 -341 33 -440 8 -37 39 -125 69 -195 97 -227 99 -240 65 -533 -29
-243 -31 -516 -5 -608 42 -153 154 -336 295 -482 85 -89 87 -90 141 -95 69 -6
117 16 143 66 21 41 19 106 -9 240 -12 61 -17 136 -18 265 -1 159 2 189 22
260 25 86 88 205 159 297 69 90 107 90 176 0 71 -92 134 -211 159 -297 20 -71
23 -101 22 -260 -1 -129 -6 -204 -18 -265 -28 -134 -30 -199 -9 -240 26 -50
74 -72 143 -66 54 5 56 6 141 95 141 146 253 329 295 482 26 92 24 365 -5 608
-34 293 -32 306 65 533 30 70 61 158 69 195 20 99 38 338 33 440 -4 79 -8 96
-43 163 -81 154 -241 276 -398 303 -117 20 -346 -17 -484 -78 l-56 -25 -71 29
c-173 71 -391 98 -515 65z m280 -232 c34 -17 65 -44 84 -71 27 -39 30 -50 30
-125 0 -73 -3 -87 -27 -124 -74 -111 -234 -133 -339 -45 -119 100 -89 302 55
369 70 33 129 31 197 -4z m815 4 c16 -9 41 -26 55 -37 25 -20 28 -20 73 -5 61
21 75 20 115 -7 18 -12 54 -34 80 -49 l46 -27 -45 -20 c-73 -33 -115 -28 -167
20 -25 22 -47 39 -49 36 -3 -3 -1 -22 5 -44 25 -89 9 -156 -53 -221 -46 -49
-77 -62 -151 -62 -93 0 -150 33 -208 120 -19 28 -23 139 -7 170 17 31 -5 31
-35 0 -51 -53 -115 -58 -181 -15 -27 17 -33 41 -9 31 10 -3 36 10 66 34 44 34
58 40 99 40 27 0 61 -5 75 -12 21 -10 28 -8 48 10 12 11 42 30 67 42 52 24
129 22 176 -4z m-1191 -346 l110 -110 152 0 152 0 63 54 c35 29 86 79 114 110
45 50 55 56 90 56 37 0 46 -7 149 -111 l110 -111 157 4 158 4 108 107 c95 93
113 107 142 107 46 0 80 -33 80 -78 0 -30 -14 -48 -124 -161 -69 -69 -129
-139 -135 -154 -7 -18 -11 -146 -11 -348 l0 -321 -29 -29 c-41 -40 -91 -40
-132 0 l-29 29 0 176 c0 167 -1 176 -21 186 -43 24 -49 2 -49 -187 l0 -175
-29 -29 c-38 -37 -88 -39 -128 -5 l-28 24 -5 340 c-4 274 -8 343 -19 358 -8
10 -49 54 -90 97 l-76 77 -92 -92 -93 -93 0 -330 c0 -309 -1 -332 -20 -362
-21 -34 -68 -51 -115 -39 -46 12 -55 49 -55 236 l0 170 -26 12 c-47 22 -54 -3
-54 -198 l0 -172 -31 -26 c-41 -35 -83 -34 -120 3 l-29 29 0 304 c0 167 -3
321 -7 343 -5 33 -23 56 -117 150 -131 130 -146 150 -146 192 0 39 39 73 84
73 27 0 48 -17 141 -110z"/>
</g>
</svg>
