<?xml version="1.0" standalone="no"?>
<!DOCTYPE svg PUBLIC "-//W3C//DTD SVG 20010904//EN"
 "http://www.w3.org/TR/2001/REC-SVG-20010904/DTD/svg10.dtd">
<svg version="1.0" xmlns="http://www.w3.org/2000/svg"
 width="256.000000pt" height="256.000000pt" viewBox="0 0 256.000000 256.000000"
 preserveAspectRatio="xMidYMid meet">

<g transform="translate(0.000000,256.000000) scale(0.100000,-0.100000)"
fill="#000000" stroke="none">
<path d="M915 2489 c-62 -59 -75 -77 -73 -98 2 -19 10 -27 27 -29 18 -3 40 13
97 69 74 74 91 110 58 123 -26 10 -30 8 -109 -65z"/>
<path d="M1154 2377 c-217 -206 -231 -222 -268 -294 -50 -99 -56 -146 -56
-415 0 -236 -1 -248 -19 -248 -44 0 -143 167 -186 315 -57 197 -19 352 119
485 50 48 60 84 26 95 -35 11 -148 -103 -196 -197 -59 -116 -67 -223 -29 -374
34 -137 102 -272 176 -347 55 -57 59 -60 96 -54 47 8 83 46 83 90 l1 32 18
-22 c13 -16 20 -46 25 -115 14 -212 79 -338 173 -338 56 0 93 57 133 208 12
45 26 82 30 82 4 0 18 -37 30 -82 40 -151 77 -208 133 -208 93 0 158 127 174
340 4 67 11 98 24 113 l18 22 1 -32 c0 -44 36 -82 83 -90 37 -6 41 -3 96 54
74 75 142 210 176 347 39 153 31 248 -30 372 -29 60 -59 95 -202 236 -199 197
-216 212 -243 203 -48 -15 -25 -49 160 -226 162 -155 185 -180 218 -248 33
-66 37 -85 40 -163 4 -100 -25 -222 -79 -331 -40 -81 -107 -167 -130 -167 -16
0 -18 18 -21 273 -3 256 -5 275 -26 329 -38 95 -95 167 -231 293 -71 66 -130
124 -130 130 -1 5 13 23 30 41 26 27 29 35 20 53 -7 12 -19 21 -29 21 -9 0
-103 -82 -208 -183z m263 -114 c140 -132 180 -181 209 -252 20 -50 15 -59 -22
-34 -41 27 -178 24 -261 -5 l-63 -22 -62 22 c-83 28 -218 31 -265 5 -40 -21
-41 -13 -7 61 21 45 57 87 177 205 83 81 153 147 155 147 2 0 65 -57 139 -127z
m-227 -365 c30 -11 71 -21 90 -21 19 0 60 10 90 21 35 14 79 21 122 22 57 0
71 -4 98 -26 17 -15 37 -38 44 -53 39 -76 22 -203 -43 -329 -35 -67 -41 -90
-50 -182 -13 -129 -36 -212 -69 -247 -24 -26 -25 -26 -39 -7 -7 10 -25 57 -39
104 -40 137 -57 174 -87 188 -22 11 -32 11 -54 0 -30 -14 -47 -51 -87 -188
-14 -47 -32 -94 -39 -104 -14 -19 -15 -19 -39 6 -34 37 -56 117 -69 244 -9 96
-15 118 -50 186 -65 126 -81 253 -43 329 7 15 27 38 44 53 27 22 41 26 98 26
43 -1 87 -8 122 -22z"/>
<path d="M135 952 c-136 -64 -173 -251 -87 -445 l25 -58 -21 -15 c-45 -32 -52
-62 -52 -242 0 -173 4 -192 42 -192 31 0 38 35 38 198 0 194 0 195 92 156 202
-86 375 -84 573 6 49 23 85 32 120 32 35 0 71 -9 120 -32 146 -67 299 -86 430
-56 33 8 98 31 145 51 110 48 159 49 255 5 196 -90 369 -93 563 -10 103 44
102 46 102 -156 0 -134 3 -165 16 -178 8 -9 21 -16 28 -16 31 0 36 24 36 192
0 180 -7 210 -52 242 l-21 15 26 58 c27 61 47 152 47 213 0 103 -63 204 -146
236 -56 21 -176 15 -252 -14 l-53 -20 -57 21 c-43 16 -81 21 -154 22 -91 0
-98 -2 -139 -30 -26 -18 -53 -50 -68 -80 -23 -44 -26 -61 -26 -155 1 -90 5
-114 27 -168 l26 -62 -37 0 c-37 -1 -46 -4 -182 -59 -165 -66 -281 -63 -475
14 -63 25 -129 45 -147 45 l-35 0 26 63 c22 53 26 77 27 167 0 94 -3 111 -26
155 -37 73 -92 108 -176 113 -69 5 -159 -10 -206 -35 -25 -13 -34 -12 -85 8
-82 31 -214 36 -267 11z m250 -88 l66 -26 48 20 c75 33 173 48 220 33 105 -31
139 -170 80 -327 -40 -106 -59 -128 -139 -158 -151 -56 -275 -55 -421 2 -59
22 -74 33 -94 67 -92 158 -86 351 14 406 48 26 136 20 226 -17z m1575 26 c25
-6 68 -20 97 -31 l52 -21 64 26 c194 77 307 19 307 -157 0 -73 -26 -164 -65
-232 -20 -34 -35 -45 -94 -67 -146 -57 -270 -58 -421 -2 -80 30 -99 52 -139
158 -55 148 -29 282 63 322 37 16 76 17 136 4z"/>
</g>
</svg>
