<?xml version="1.0" standalone="no"?>
<!DOCTYPE svg PUBLIC "-//W3C//DTD SVG 20010904//EN"
 "http://www.w3.org/TR/2001/REC-SVG-20010904/DTD/svg10.dtd">
<svg version="1.0" xmlns="http://www.w3.org/2000/svg"
 width="800.000000pt" height="800.000000pt" viewBox="0 0 416.000000 416.000000"
 preserveAspectRatio="xMidYMid meet">

<g transform="translate(0.000000,416.000000) scale(0.100000,-0.100000)"
fill="#000000" stroke="none">
<path d="M872 3079 c-107 -53 -191 -166 -227 -304 -16 -64 -19 -194 -6 -262
l8 -42 -86 -3 c-73 -3 -86 -6 -89 -21 -7 -37 16 -47 109 -47 l88 0 24 -77 c47
-149 45 -197 -21 -428 -34 -121 -37 -139 -36 -255 2 -145 24 -245 95 -425 52
-133 79 -165 141 -165 82 0 95 19 173 249 67 197 103 275 170 376 131 196 186
195 316 -8 64 -100 98 -175 165 -371 31 -88 62 -172 70 -187 20 -40 53 -59
102 -59 34 0 49 6 71 28 27 27 97 190 123 285 6 26 15 47 18 47 3 0 12 -21 18
-47 26 -95 96 -258 123 -286 50 -49 140 -33 173 32 8 15 40 101 71 192 86 248
163 395 254 483 73 71 121 48 226 -109 67 -101 103 -179 170 -376 78 -230 91
-249 173 -249 62 0 89 32 141 165 71 180 93 280 95 425 1 116 -2 134 -36 255
-66 231 -68 279 -21 428 l24 77 88 0 c93 0 116 10 109 47 -3 15 -16 18 -92 21
-78 2 -87 5 -81 20 17 40 17 217 1 282 -36 143 -119 255 -228 309 -86 43 -162
42 -328 -4 -69 -19 -145 -35 -170 -35 -25 0 -101 16 -170 35 -166 46 -242 47
-328 4 -71 -35 -150 -116 -184 -189 -13 -27 -25 -49 -28 -49 -3 0 -15 22 -28
49 -34 73 -113 154 -184 189 -86 43 -162 42 -328 -4 -69 -19 -145 -35 -170
-35 -25 0 -101 16 -170 35 -166 46 -242 47 -328 4z m313 -70 c156 -44 200 -46
315 -14 205 56 230 59 290 42 153 -45 252 -203 250 -401 0 -50 -4 -107 -8
-126 l-8 -35 -182 -3 -182 -2 0 85 c0 164 -19 175 -290 175 -271 0 -290 -11
-290 -175 l0 -85 -180 0 c-163 0 -181 2 -188 18 -4 9 -7 76 -7 147 0 129 0
131 37 207 67 141 171 214 288 202 24 -2 94 -18 155 -35z m1420 -1 c150 -43
222 -43 375 2 187 55 266 44 361 -51 23 -23 57 -75 77 -117 37 -76 37 -78 37
-207 0 -71 -3 -138 -7 -147 -7 -16 -25 -18 -188 -18 l-180 0 0 85 c0 164 -19
175 -290 175 -271 0 -290 -11 -290 -175 l0 -85 -182 2 -182 3 -8 35 c-4 19 -8
76 -8 126 -2 191 90 345 235 397 61 21 102 18 250 -25z m-1027 -360 c7 -7 12
-44 12 -95 l0 -83 -220 0 -220 0 0 83 c0 51 5 88 12 95 17 17 399 17 416 0z
m1420 0 c7 -7 12 -44 12 -95 l0 -83 -220 0 -220 0 0 83 c0 51 5 88 12 95 17
17 399 17 416 0z m-1916 -344 c3 -94 4 -96 36 -125 l32 -29 221 0 221 0 34 34
c34 34 34 35 34 125 l0 91 171 0 c150 0 170 -2 165 -15 -3 -9 -15 -48 -27 -87
-32 -103 -23 -230 27 -398 34 -115 38 -135 38 -250 1 -143 -19 -236 -86 -405
-51 -130 -75 -156 -111 -121 -7 8 -40 90 -71 183 -96 279 -208 481 -309 554
-50 36 -113 39 -163 9 -110 -68 -231 -291 -344 -633 -57 -174 -87 -172 -158 8
-67 169 -87 262 -86 405 0 115 4 135 38 250 50 168 59 295 27 398 -12 39 -24
78 -27 87 -5 13 15 15 164 15 l170 0 4 -96z m508 19 c0 -43 -5 -85 -10 -93 -8
-13 -42 -15 -210 -15 -168 0 -202 2 -210 15 -5 8 -10 50 -10 93 l0 77 220 0
220 0 0 -77z m525 -5 c37 -109 37 -203 0 -343 -26 -99 -31 -112 -39 -104 -3 3
-17 49 -31 104 -37 140 -37 234 0 343 15 45 31 82 35 82 4 0 20 -37 35 -82z
m385 -9 c0 -90 0 -91 34 -125 l34 -34 221 0 221 0 32 29 c32 29 33 31 36 125
l4 96 170 0 c149 0 169 -2 164 -15 -3 -9 -15 -48 -27 -87 -32 -103 -23 -230
27 -398 34 -115 38 -135 38 -250 1 -143 -19 -236 -86 -405 -71 -180 -101 -182
-158 -8 -92 278 -173 447 -270 562 -57 68 -96 91 -152 91 -124 0 -267 -212
-394 -583 -31 -93 -64 -175 -71 -183 -36 -35 -60 -9 -111 121 -67 169 -87 262
-86 405 0 115 4 135 38 250 50 168 59 295 27 398 -12 39 -24 78 -27 87 -5 13
15 15 165 15 l171 0 0 -91z m510 14 c0 -43 -5 -85 -10 -93 -8 -13 -42 -15
-210 -15 -168 0 -202 2 -210 15 -5 8 -10 50 -10 93 l0 77 220 0 220 0 0 -77z"/>
<path d="M1221 2586 c-9 -11 -10 -20 -1 -35 20 -37 74 -21 68 20 -4 29 -48 38
-67 15z"/>
<path d="M1457 2593 c-13 -12 -7 -51 9 -57 28 -11 43 -7 54 15 9 15 8 24 -1
35 -12 14 -51 19 -62 7z"/>
<path d="M2641 2586 c-9 -11 -10 -20 -1 -35 20 -37 74 -21 68 20 -4 29 -48 38
-67 15z"/>
<path d="M2877 2593 c-13 -12 -7 -51 9 -57 28 -11 43 -7 54 15 9 15 8 24 -1
35 -12 14 -51 19 -62 7z"/>
<path d="M1221 2327 c-20 -24 -2 -48 33 -45 26 2 31 7 31 28 0 19 -6 26 -26
28 -14 2 -31 -3 -38 -11z"/>
<path d="M1454 2325 c-10 -26 4 -45 35 -45 32 0 48 24 30 46 -15 19 -58 18
-65 -1z"/>
<path d="M2641 2327 c-20 -24 -2 -48 33 -45 26 2 31 7 31 28 0 19 -6 26 -26
28 -14 2 -31 -3 -38 -11z"/>
<path d="M2874 2325 c-10 -26 4 -45 35 -45 32 0 48 24 30 46 -15 19 -58 18
-65 -1z"/>
</g>
</svg>
