<?xml version="1.0" standalone="no"?>
<!DOCTYPE svg PUBLIC "-//W3C//DTD SVG 20010904//EN"
 "http://www.w3.org/TR/2001/REC-SVG-20010904/DTD/svg10.dtd">
<svg version="1.0" xmlns="http://www.w3.org/2000/svg"
 width="640.000000pt" height="640.000000pt" viewBox="0 0 640.000000 640.000000"
 preserveAspectRatio="xMidYMid meet">

<g transform="translate(0.000000,640.000000) scale(0.100000,-0.100000)"
fill="#000000" stroke="none">
<path d="M1277 5540 c-171 -30 -331 -183 -393 -374 -22 -68 -27 -100 -27 -196
0 -129 10 -188 59 -342 27 -83 41 -112 65 -132 l30 -26 1666 0 c1808 0 1705
-3 1731 55 19 41 14 72 -17 107 l-29 33 -161 3 -161 3 -19 64 c-11 36 -26 103
-32 150 -22 154 20 296 114 382 60 55 99 74 166 80 47 5 70 0 131 -24 92 -37
118 -43 200 -53 99 -11 209 5 313 46 78 30 101 35 148 31 166 -14 290 -177
289 -382 -1 -65 -9 -110 -42 -222 l-21 -73 -94 0 c-102 0 -154 -15 -172 -48
-19 -36 -13 -89 13 -119 l24 -28 170 0 c153 0 172 2 191 19 22 20 89 212 112
321 7 33 12 107 12 165 0 85 -6 120 -27 186 -63 197 -205 332 -388 370 -93 19
-159 11 -273 -34 -82 -33 -99 -36 -190 -36 -91 0 -107 3 -173 32 -40 17 -102
37 -137 43 -125 21 -270 -23 -370 -113 l-50 -45 -49 43 c-105 92 -248 136
-371 115 -36 -6 -100 -26 -142 -44 -69 -28 -89 -32 -173 -32 -84 0 -104 4
-173 32 -42 18 -106 38 -142 44 -123 21 -266 -23 -371 -115 l-49 -43 -48 43
c-101 91 -248 136 -371 115 -36 -6 -98 -26 -138 -43 -66 -29 -82 -32 -173 -32
-91 0 -108 3 -190 36 -98 39 -188 52 -268 38z m212 -225 c176 -68 319 -67 496
2 76 30 99 34 146 30 103 -9 189 -75 241 -184 58 -122 59 -227 5 -416 l-22
-77 -625 2 -625 3 -24 80 c-34 114 -36 294 -2 378 34 86 89 149 162 186 84 42
131 41 248 -4z m1461 2 c81 -36 154 -51 250 -51 95 0 169 15 250 51 75 34 145
40 208 19 57 -19 149 -95 158 -130 3 -12 -2 -48 -11 -81 -20 -79 -19 -238 3
-346 10 -48 16 -92 14 -98 -6 -17 -1252 -15 -1252 2 0 7 9 53 20 103 24 109
26 257 5 339 -9 33 -14 69 -11 81 8 32 99 110 149 128 57 21 148 14 217 -17z"/>
<path d="M4668 4654 c-35 -18 -48 -43 -48 -89 0 -44 45 -95 84 -95 108 0 146
139 51 185 -40 18 -52 18 -87 -1z"/>
<path d="M3160 4262 c-19 -9 -40 -28 -47 -42 -10 -19 -13 -129 -13 -444 l0
-419 -69 66 c-62 60 -73 67 -109 67 -55 0 -92 -37 -92 -94 0 -41 4 -46 168
-209 151 -150 172 -167 202 -167 30 0 51 17 202 167 164 163 168 168 168 209
0 57 -37 94 -92 94 -36 0 -47 -7 -109 -67 l-69 -66 0 416 c0 240 -4 426 -10
441 -19 50 -81 73 -130 48z"/>
<path d="M1544 3091 c-77 -21 -154 -57 -219 -101 -74 -51 -360 -311 -374 -341
-13 -26 -13 -35 3 -84 l17 -55 -40 -56 c-79 -111 -76 -73 -76 -851 l0 -693 28
-27 c40 -41 99 -39 138 5 l29 32 1 643 1 642 33 -160 c46 -226 80 -348 121
-437 68 -144 162 -198 268 -154 85 36 118 113 147 344 25 205 41 266 75 288
24 16 27 16 52 -3 37 -27 58 -96 87 -282 26 -169 42 -225 81 -284 46 -70 147
-96 223 -57 107 54 163 192 247 610 25 124 52 253 61 288 l15 62 738 0 737 0
11 -38 c6 -20 34 -150 61 -287 89 -446 145 -586 256 -636 51 -24 99 -23 151 0
80 37 113 118 139 342 25 217 43 281 85 294 52 16 89 -53 115 -215 34 -216 46
-267 75 -327 60 -121 187 -151 281 -66 80 72 131 211 200 538 l37 180 1 -642
1 -643 29 -32 c39 -44 98 -46 138 -5 l28 27 0 693 c0 779 3 745 -76 850 -31
40 -39 58 -34 77 3 14 8 48 11 75 7 60 17 49 -236 254 -248 202 -357 251 -559
251 -167 0 -310 -51 -443 -160 -145 -117 -322 -285 -328 -310 l-6 -25 -676 -3
-675 -2 -6 29 c-5 23 -47 62 -201 188 -218 177 -272 213 -378 250 -101 36
-289 42 -394 14z m332 -201 c78 -27 109 -47 280 -187 l151 -122 -29 -98 c-16
-54 -49 -198 -73 -319 -52 -258 -87 -397 -117 -467 -20 -46 -22 -48 -30 -26
-5 13 -18 85 -29 159 -25 165 -43 240 -76 305 -52 106 -125 154 -231 155 -72
0 -114 -15 -163 -58 -71 -62 -106 -173 -134 -422 -8 -74 -19 -138 -24 -143
-21 -21 -76 180 -141 508 -22 116 -54 253 -70 307 -17 53 -30 98 -30 101 0 3
61 60 137 126 193 172 293 217 456 205 37 -3 93 -14 123 -24z m2854 19 c103
-16 174 -56 346 -194 87 -71 160 -129 162 -130 1 -1 -11 -49 -28 -106 -16 -57
-50 -205 -75 -329 -61 -304 -113 -490 -136 -490 -9 0 -23 65 -44 208 -35 240
-85 345 -188 397 -36 18 -67 25 -107 25 -104 0 -171 -37 -219 -122 -39 -67
-56 -142 -80 -338 -11 -89 -23 -165 -26 -168 -20 -20 -84 211 -140 505 -30
155 -76 343 -100 406 -5 12 166 172 267 249 52 40 137 75 208 88 65 11 87 11
160 -1z"/>
</g>
</svg>
